<svg id="Layer_1" data-name="Layer 1" xmlns="http://www.w3.org/2000/svg" xmlns:xlink="http://www.w3.org/1999/xlink" width="3.4in" height="1.13in" viewBox="0 0 244.88 81.25"><defs><clipPath id="clip-path"><circle cx="40.62" cy="40.62" r="40.09" fill="none"/></clipPath></defs><title>logo-pwc-footer</title><path d="M107.37,21.44a5.57,5.57,0,0,1-.51,2.49,4.46,4.46,0,0,1-1.39,1.67,6,6,0,0,1-2.06.93,10.35,10.35,0,0,1-2.54.3V30.2H96.35V16h4.52a10.35,10.35,0,0,1,2.54.3,6,6,0,0,1,2.06.93,4.46,4.46,0,0,1,1.39,1.67A5.58,5.58,0,0,1,107.37,21.44ZM100.88,23h.19a1.71,1.71,0,0,0,1.28-.41,1.9,1.9,0,0,0,0-2.31,1.71,1.71,0,0,0-1.28-.41h-.19Z" fill="#004c6d"/><path d="M113.49,16h3.4l5.37,14.16h-4.46l-.47-1.27H113l-.47,1.27h-4.46Zm2.65,9.77-1-2.48-1,2.48Z" fill="#004c6d"/><path d="M123.1,23.13a7.64,7.64,0,0,1,.59-3.07,7.16,7.16,0,0,1,1.61-2.35,7,7,0,0,1,2.38-1.5,8,8,0,0,1,2.89-.52,9,9,0,0,1,2.16.23,10.22,10.22,0,0,1,1.62.53,7.63,7.63,0,0,1,1.36.74l-2.23,3.93a7.63,7.63,0,0,0-.74-.49,7.28,7.28,0,0,0-.86-.33,3.73,3.73,0,0,0-1.14-.16,3.07,3.07,0,0,0-1.21.23,3.11,3.11,0,0,0-1,.64,2.91,2.91,0,0,0-.88,2.1,2.77,2.77,0,0,0,.24,1.16,3,3,0,0,0,.67.94,3.15,3.15,0,0,0,1,.64,3.29,3.29,0,0,0,1.25.23,4,4,0,0,0,1.21-.17,4.45,4.45,0,0,0,.89-.38,3.3,3.3,0,0,0,.74-.55l2.23,3.93a6.3,6.3,0,0,1-1.36.83,11.49,11.49,0,0,1-1.63.55,8.5,8.5,0,0,1-2.19.25,8.4,8.4,0,0,1-3.06-.54,7.22,7.22,0,0,1-2.42-1.52,6.88,6.88,0,0,1-1.59-2.35A7.74,7.74,0,0,1,123.1,23.13Z" fill="#004c6d"/><path d="M137.3,16h4.8V30.2h-4.8Z" fill="#004c6d"/><path d="M144.44,16h8.34v3.71H149v1.57h3.76v3.52H149V30.2h-4.52Z" fill="#004c6d"/><path d="M154.79,16h4.8V30.2h-4.8Z" fill="#004c6d"/><path d="M160.76,23.13a7.64,7.64,0,0,1,.59-3.07A7.16,7.16,0,0,1,163,17.72a7,7,0,0,1,2.38-1.5,8,8,0,0,1,2.89-.52,9,9,0,0,1,2.16.23,10.22,10.22,0,0,1,1.62.53,7.63,7.63,0,0,1,1.36.74l-2.23,3.93a7.63,7.63,0,0,0-.74-.49,7.28,7.28,0,0,0-.86-.33,3.73,3.73,0,0,0-1.14-.16,3.07,3.07,0,0,0-1.21.23,3.11,3.11,0,0,0-1,.64,2.91,2.91,0,0,0-.88,2.1,2.77,2.77,0,0,0,.24,1.16,3,3,0,0,0,.67.94,3.15,3.15,0,0,0,1,.64,3.29,3.29,0,0,0,1.25.23,4,4,0,0,0,1.21-.17,4.45,4.45,0,0,0,.89-.38,3.3,3.3,0,0,0,.74-.55l2.23,3.93a6.3,6.3,0,0,1-1.36.83,11.49,11.49,0,0,1-1.63.55,8.5,8.5,0,0,1-2.19.25,8.4,8.4,0,0,1-3.06-.54,7.22,7.22,0,0,1-2.42-1.52,6.88,6.88,0,0,1-1.59-2.35A7.74,7.74,0,0,1,160.76,23.13Z" fill="#004c6d"/><path d="M176.34,16h4.8L182.77,21,184.41,16h3.1L189.14,21,190.78,16h4.8L190.9,30.2h-3.52L186,25.92l-1.42,4.29H181Z" fill="#5fc7d2"/><path d="M196.74,16h4.52v4.82h2.53V16h4.54V30.2h-4.54V25h-2.53V30.2h-4.52Z" fill="#5fc7d2"/><path d="M214.87,16h3.4l5.37,14.16h-4.46l-.47-1.27h-4.29L214,30.2H209.5Zm2.65,9.77-1-2.48-1,2.48Z" fill="#5fc7d2"/><path d="M224.8,16h4.71V26.49h3.91V30.2H224.8Z" fill="#5fc7d2"/><path d="M235,16h8.34v3.71h-3.82v1.57h3.76v3.52h-3.76v1.63h4V30.2H235Z" fill="#5fc7d2"/><path d="M96,42.82a7.64,7.64,0,0,1,.59-3.07,7.16,7.16,0,0,1,1.61-2.35,7,7,0,0,1,2.38-1.5,8,8,0,0,1,2.89-.52,9,9,0,0,1,2.16.23,10.22,10.22,0,0,1,1.62.53,7.63,7.63,0,0,1,1.36.74l-2.23,3.93a7.63,7.63,0,0,0-.74-.49,7.28,7.28,0,0,0-.86-.33,3.73,3.73,0,0,0-1.14-.16,3.07,3.07,0,0,0-1.21.23,3.11,3.11,0,0,0-1,.64,2.91,2.91,0,0,0-.88,2.1,2.77,2.77,0,0,0,.24,1.16,3,3,0,0,0,.67.94,3.15,3.15,0,0,0,1,.64,3.29,3.29,0,0,0,1.25.23,4,4,0,0,0,1.21-.17,4.45,4.45,0,0,0,.89-.38,3.3,3.3,0,0,0,.74-.55l2.23,3.93a6.3,6.3,0,0,1-1.36.83,11.49,11.49,0,0,1-1.63.55,8.5,8.5,0,0,1-2.19.25,8.4,8.4,0,0,1-3.06-.54,7.22,7.22,0,0,1-2.42-1.52,6.88,6.88,0,0,1-1.59-2.35A7.74,7.74,0,0,1,96,42.82Z" fill="#004c6d"/><path d="M109.92,42.82a7.23,7.23,0,0,1,.58-2.89,7.43,7.43,0,0,1,4-4,7.43,7.43,0,0,1,5.77,0,7.43,7.43,0,0,1,4,4,7.43,7.43,0,0,1,0,5.77,7.42,7.42,0,0,1-4,4,7.43,7.43,0,0,1-5.77,0,7.42,7.42,0,0,1-4-4A7.22,7.22,0,0,1,109.92,42.82Zm4.46,0a2.88,2.88,0,0,0,.23,1.16,3,3,0,0,0,1.58,1.58,3,3,0,0,0,2.31,0A3,3,0,0,0,120.09,44a3,3,0,0,0,0-2.31,3,3,0,0,0-1.58-1.58,3,3,0,0,0-2.31,0,3,3,0,0,0-1.58,1.58A2.88,2.88,0,0,0,114.38,42.82Z" fill="#004c6d"/><path d="M126.79,35.73h3.71l3.91,5.46V35.73h4.44V49.89h-3.74l-3.88-5.43v5.43h-4.44Z" fill="#004c6d"/><path d="M140.81,45.49a7,7,0,0,0,1,.23,7.74,7.74,0,0,0,1,.17,9.33,9.33,0,0,0,1.09.06q1,0,1-.72a.81.81,0,0,0-.3-.56,9.23,9.23,0,0,0-.75-.64l-1-.77a7.1,7.1,0,0,1-1-1,5.09,5.09,0,0,1-.75-1.24,4,4,0,0,1-.3-1.58,4.08,4.08,0,0,1,.36-1.76,3.54,3.54,0,0,1,1-1.27,4.49,4.49,0,0,1,1.5-.77,6.2,6.2,0,0,1,1.84-.27,9.87,9.87,0,0,1,1,.05l.91.1.91.13v4l-.38,0-.38,0-.45,0h-.32a1.94,1.94,0,0,0-.36.05.73.73,0,0,0-.3.15.37.37,0,0,0-.13.3q0,.17.29.42l.7.59q.41.34.91.79a6.38,6.38,0,0,1,.91,1,6,6,0,0,1,.7,1.29,4.33,4.33,0,0,1,.29,1.61,5.08,5.08,0,0,1-.3,1.75,3.72,3.72,0,0,1-.92,1.42,4.42,4.42,0,0,1-1.6,1,6.86,6.86,0,0,1-2.31.35,14.05,14.05,0,0,1-1.5-.07q-.69-.07-1.22-.18a10.17,10.17,0,0,1-1.12-.25Z" fill="#004c6d"/><path d="M151.59,35.73h8.34v3.71h-3.82V41h3.76v3.52h-3.76v1.63h4v3.71h-8.49Z" fill="#004c6d"/><path d="M162.2,35.73h4.88a8.42,8.42,0,0,1,2.52.36,5.86,5.86,0,0,1,2,1.06,4.87,4.87,0,0,1,1.33,1.73,5.57,5.57,0,0,1,.48,2.37,4.86,4.86,0,0,1-.3,1.8,5.54,5.54,0,0,1-.66,1.23,4.59,4.59,0,0,1-1,.93l2.65,4.67h-5.31l-2.12-3.59v3.59H162.2Zm4.52,7H167a2.48,2.48,0,0,0,1.37-.36,1.58,1.58,0,0,0,0-2.42,2.48,2.48,0,0,0-1.37-.36h-.23Z" fill="#004c6d"/><path d="M179.21,35.73l2.4,6.16L184,35.73H189l-5.52,14.16h-3.67l-5.52-14.16Z" fill="#004c6d"/><path d="M191.79,35.73h3.4l5.37,14.16H196.1l-.47-1.27h-4.29l-.47,1.27h-4.46Zm2.65,9.77-1-2.48-1,2.48Z" fill="#004c6d"/><path d="M201.73,35.73h3.71l3.91,5.46V35.73h4.44V49.89h-3.74l-3.88-5.43v5.43h-4.44Z" fill="#004c6d"/><path d="M215.8,42.82a7.64,7.64,0,0,1,.59-3.07A7.16,7.16,0,0,1,218,37.41a7,7,0,0,1,2.38-1.5,8,8,0,0,1,2.89-.52,9,9,0,0,1,2.16.23,10.22,10.22,0,0,1,1.62.53,7.63,7.63,0,0,1,1.36.74l-2.23,3.93a7.63,7.63,0,0,0-.74-.49,7.28,7.28,0,0,0-.86-.33,3.73,3.73,0,0,0-1.14-.16,3.07,3.07,0,0,0-1.21.23,3.11,3.11,0,0,0-1,.64,2.91,2.91,0,0,0-.88,2.1,2.77,2.77,0,0,0,.24,1.16,3,3,0,0,0,.67.94,3.15,3.15,0,0,0,1,.64,3.29,3.29,0,0,0,1.25.23,4,4,0,0,0,1.21-.17,4.45,4.45,0,0,0,.89-.38,3.3,3.3,0,0,0,.74-.55l2.23,3.93a6.3,6.3,0,0,1-1.36.83,11.49,11.49,0,0,1-1.63.55,8.5,8.5,0,0,1-2.19.25,8.4,8.4,0,0,1-3.06-.54A7.22,7.22,0,0,1,218,48.19a6.88,6.88,0,0,1-1.59-2.35A7.74,7.74,0,0,1,215.8,42.82Z" fill="#004c6d"/><path d="M233.23,43.8l-4.39-8.07h5l1.63,3,1.61-3h5l-4.39,8.07v6.09h-4.52Z" fill="#004c6d"/><path d="M96.26,66.5a4.11,4.11,0,0,0,2.2.62c.94,0,1.81-.51,1.81-1.45,0-.64-.42-1.07-1.38-1.58-1.13-.61-2-1.39-2-2.55,0-1.87,1.62-3,3.59-3a4.36,4.36,0,0,1,2.17.49l-.55,1.41a3.68,3.68,0,0,0-1.77-.44c-1.07,0-1.68.62-1.68,1.28s.55,1.06,1.46,1.58a2.9,2.9,0,0,1,1.9,2.59c0,2-1.58,3.16-3.77,3.16a4.51,4.51,0,0,1-2.59-.68Z" fill="#5fc7d2"/><path d="M107.5,68.42c0-.42.07-1,.13-1.59h0a2.83,2.83,0,0,1-2.52,1.75A2.15,2.15,0,0,1,103,66.18a4.83,4.83,0,0,1,5-5,7.48,7.48,0,0,1,2.13.32l-.72,3.68a16.41,16.41,0,0,0-.29,3.22Zm.7-5.84a2.83,2.83,0,0,0-.7-.07c-1.57,0-2.77,1.75-2.77,3.36,0,.74.28,1.35,1,1.35s1.74-1,2.07-2.78Z" fill="#5fc7d2"/><path d="M110.71,68.42l1.09-5.75h-.91l.25-1.3H112l.07-.36a4,4,0,0,1,1.17-2.38,2.85,2.85,0,0,1,1.86-.65,2.37,2.37,0,0,1,1,.19l-.32,1.33a1.81,1.81,0,0,0-.68-.12c-.8,0-1.25.74-1.41,1.65l-.06.33h1.46l-.25,1.3h-1.46l-1.09,5.75Z" fill="#5fc7d2"/><path d="M120.22,68a5.67,5.67,0,0,1-2.49.55,2.65,2.65,0,0,1-2.9-2.91c0-2.13,1.57-4.45,4-4.45a2,2,0,0,1,2.28,2c0,1.81-1.9,2.39-4.62,2.33a2,2,0,0,0,.19,1,1.56,1.56,0,0,0,1.45.72,4.17,4.17,0,0,0,1.94-.46Zm-1.61-5.55a2.17,2.17,0,0,0-2,1.8c1.74,0,2.86-.22,2.86-1.06C119.51,62.74,119.15,62.47,118.61,62.47Z" fill="#5fc7d2"/><path d="M125.21,68.42l-.42-9.77h1.7l.1,5c0,1.22,0,2.12,0,2.88h0c.3-.81.59-1.65,1.09-2.84l2.19-5.07h1.84l.07,4.93c0,1.22,0,2.13,0,2.94h0c.32-.93.64-1.86,1-2.84l2.1-5h1.78l-4.41,9.77h-1.83l-.14-4.71a30.37,30.37,0,0,1,.06-3h0c-.33,1-.64,1.91-1.09,3l-2.15,4.78Z" fill="#5fc7d2"/><path d="M139.69,68.42c0-.42.07-1,.13-1.59h0a2.83,2.83,0,0,1-2.52,1.75,2.15,2.15,0,0,1-2.09-2.41,4.83,4.83,0,0,1,5-5,7.48,7.48,0,0,1,2.13.32l-.72,3.68a16.41,16.41,0,0,0-.29,3.22Zm.7-5.84a2.83,2.83,0,0,0-.7-.07c-1.57,0-2.77,1.75-2.77,3.36,0,.74.28,1.35,1,1.35s1.74-1,2.07-2.78Z" fill="#5fc7d2"/><path d="M146.2,59.42l-.36,1.94h1.59l-.26,1.3H145.6L145,65.52a6.17,6.17,0,0,0-.12,1,.55.55,0,0,0,.62.62,3.66,3.66,0,0,0,.58,0L146,68.44a3.84,3.84,0,0,1-1.1.15c-1.16,0-1.68-.64-1.68-1.45a5.79,5.79,0,0,1,.16-1.32l.61-3.15h-1l.25-1.3h1l.29-1.52Z" fill="#5fc7d2"/><path d="M152.6,68a5.67,5.67,0,0,1-2.49.55,2.65,2.65,0,0,1-2.9-2.91c0-2.13,1.57-4.45,4-4.45a2,2,0,0,1,2.28,2c0,1.81-1.9,2.39-4.62,2.33a2,2,0,0,0,.19,1,1.56,1.56,0,0,0,1.45.72,4.17,4.17,0,0,0,1.94-.46ZM151,62.47a2.17,2.17,0,0,0-2,1.8c1.74,0,2.86-.22,2.86-1.06C151.89,62.74,151.53,62.47,151,62.47Z" fill="#5fc7d2"/><path d="M153.72,68.42l.83-4.35c.19-1,.28-2.07.36-2.71h1.46c0,.48-.09,1-.16,1.49h0a2.59,2.59,0,0,1,2.22-1.65l.36,0-.33,1.65a2,2,0,0,0-.32,0c-1.2,0-2,1.22-2.25,2.73l-.54,2.84Z" fill="#5fc7d2"/><path d="M158.63,66.84a3.85,3.85,0,0,0,1.7.48c.68,0,1.09-.41,1.09-.87s-.23-.72-.93-1.09a2.17,2.17,0,0,1-1.39-1.84c0-1.36,1.19-2.32,2.86-2.32a3.51,3.51,0,0,1,1.67.36l-.43,1.22a2.82,2.82,0,0,0-1.32-.32c-.64,0-1.07.35-1.07.83s.32.67.91,1a2.29,2.29,0,0,1,1.46,1.9c0,1.55-1.3,2.41-3,2.41a3.65,3.65,0,0,1-2-.51Z" fill="#5fc7d2"/><path d="M162.75,70.18a25.08,25.08,0,0,0,1.54-3.83l1.9-.15A22.64,22.64,0,0,1,164,70.06Z" fill="#5fc7d2"/><path d="M169.67,66.5a4.11,4.11,0,0,0,2.2.62c.94,0,1.81-.51,1.81-1.45,0-.64-.42-1.07-1.38-1.58-1.13-.61-2-1.39-2-2.55,0-1.87,1.62-3,3.59-3a4.36,4.36,0,0,1,2.17.49l-.55,1.41a3.68,3.68,0,0,0-1.77-.44c-1.07,0-1.68.62-1.68,1.28s.55,1.06,1.46,1.58a2.9,2.9,0,0,1,1.9,2.59c0,2-1.58,3.16-3.77,3.16a4.51,4.51,0,0,1-2.59-.68Z" fill="#5fc7d2"/><path d="M180.91,68.42c0-.42.07-1,.13-1.59h0a2.83,2.83,0,0,1-2.52,1.75,2.15,2.15,0,0,1-2.09-2.41,4.83,4.83,0,0,1,5-5,7.48,7.48,0,0,1,2.13.32l-.72,3.68a16.41,16.41,0,0,0-.29,3.22Zm.7-5.84a2.83,2.83,0,0,0-.7-.07c-1.57,0-2.77,1.75-2.77,3.36,0,.74.28,1.35,1,1.35s1.74-1,2.07-2.78Z" fill="#5fc7d2"/><path d="M184.11,68.42l1.09-5.75h-.91l.25-1.3h.91l.07-.36a4,4,0,0,1,1.17-2.38,2.85,2.85,0,0,1,1.86-.65,2.37,2.37,0,0,1,1,.19l-.32,1.33a1.81,1.81,0,0,0-.68-.12c-.8,0-1.25.74-1.41,1.65l-.06.33h1.46l-.25,1.3h-1.46l-1.09,5.75Z" fill="#5fc7d2"/><path d="M193.62,68a5.67,5.67,0,0,1-2.49.55,2.65,2.65,0,0,1-2.9-2.91c0-2.13,1.57-4.45,4-4.45a2,2,0,0,1,2.28,2c0,1.81-1.9,2.39-4.62,2.33a2,2,0,0,0,.19,1,1.56,1.56,0,0,0,1.45.72,4.17,4.17,0,0,0,1.94-.46ZM192,62.47a2.17,2.17,0,0,0-2,1.8c1.74,0,2.86-.22,2.86-1.06C192.91,62.74,192.55,62.47,192,62.47Z" fill="#5fc7d2"/><path d="M198.61,68.42l-.42-9.77h1.7l.1,5c0,1.22,0,2.12,0,2.88h0c.3-.81.59-1.65,1.09-2.84l2.19-5.07h1.84l.07,4.93c0,1.22,0,2.13,0,2.94h0c.32-.93.64-1.86,1-2.84l2.1-5h1.78l-4.41,9.77h-1.83l-.14-4.71a30.37,30.37,0,0,1,.06-3h0c-.33,1-.64,1.91-1.09,3l-2.15,4.78Z" fill="#5fc7d2"/><path d="M209.16,68.42l1.94-10.29h1.7L212,62.42h0a3,3,0,0,1,2.36-1.22,1.7,1.7,0,0,1,1.77,1.9,7.56,7.56,0,0,1-.12,1.25l-.78,4.07h-1.68l.75-4a5.72,5.72,0,0,0,.09-.93c0-.54-.25-1-.88-1-.83,0-1.75,1-2,2.48l-.64,3.36Z" fill="#5fc7d2"/><path d="M221.48,68.42c0-.42.07-1,.13-1.59h0A2.83,2.83,0,0,1,219,68.58,2.15,2.15,0,0,1,217,66.18a4.83,4.83,0,0,1,5-5,7.48,7.48,0,0,1,2.13.32l-.72,3.68a16.41,16.41,0,0,0-.29,3.22Zm.7-5.84a2.83,2.83,0,0,0-.7-.07c-1.57,0-2.77,1.75-2.77,3.36,0,.74.28,1.35,1,1.35s1.74-1,2.07-2.78Z" fill="#5fc7d2"/><path d="M224.38,68.42l2-10.29H228l-2,10.29Z" fill="#5fc7d2"/><path d="M233.24,68a5.67,5.67,0,0,1-2.49.55,2.65,2.65,0,0,1-2.9-2.91c0-2.13,1.57-4.45,4-4.45a2,2,0,0,1,2.28,2c0,1.81-1.9,2.39-4.62,2.33a2,2,0,0,0,.19,1,1.56,1.56,0,0,0,1.45.72,4.17,4.17,0,0,0,1.94-.46Zm-1.61-5.55a2.17,2.17,0,0,0-2,1.8c1.74,0,2.86-.22,2.86-1.06C232.53,62.74,232.17,62.47,231.63,62.47Z" fill="#5fc7d2"/><path d="M234.53,66.84a3.85,3.85,0,0,0,1.7.48c.68,0,1.09-.41,1.09-.87s-.23-.72-.93-1.09A2.17,2.17,0,0,1,235,63.52c0-1.36,1.19-2.32,2.86-2.32a3.51,3.51,0,0,1,1.67.36l-.43,1.22a2.82,2.82,0,0,0-1.32-.32c-.64,0-1.07.35-1.07.83s.32.67.91,1a2.29,2.29,0,0,1,1.46,1.9c0,1.55-1.3,2.41-3,2.41a3.65,3.65,0,0,1-2-.51Z" fill="#5fc7d2"/><path d="M239.66,67.53a1.2,1.2,0,0,1,1.19-1.25,1,1,0,0,1,1,1.07,1.18,1.18,0,0,1-1.2,1.22A1,1,0,0,1,239.66,67.53Z" fill="#5fc7d2"/><circle cx="40.62" cy="40.62" r="40.09" fill="#bee6f0"/><g clip-path="url(#clip-path)"><path d="M-12.35,82.25H93.6c0-7.56,0-14.18,0-22.76C81.93,66.19,70,63.13,63.28,61.77c-10.05-2-19.79-6.43-30.21-6.16a57.88,57.88,0,0,0-19.44,4.17A51.36,51.36,0,0,0-12.35,82.25Z" fill="#5fc7d2"/><path d="M-12.35,82.25s0-18.19,0-21.86c0,0,8.67,10.07,26.89,8.73,6.21-.46,18-5.08,27.87-5.14,11.69-.08,23.05,1.64,32.77,6.39A88.21,88.21,0,0,1,93.6,82.25Z" fill="#47a5ae"/></g><path d="M52.62,59s-6.2,10-12.57,10.61a.61.61,0,0,1-.53-1c2.28-2.76,5.22-6.89,4-8.51" fill="#004259"/><path d="M6.94,34.44s3.66-6.11,10.24-4.25c0,0,0-5.16,7.18-5.73,0,0-.5,5.44-4.1,7.3,0,0,4.6,10.85,18,7A25.13,25.13,0,0,0,51.15,25.51s6.27-12.39,13.79-8.64c0,0,6.72,3.77,5.15,19.31,0,0-2.05,24.42-27.58,27,0,0-12.33,9.74-20.61,7.62a.82.82,0,0,1-.21-1.5c4.11-2.44,9.69-6.29,8.86-8.88,0,0-16.73-6.11-15.26-26.59C15.29,33.86,12.81,36,6.94,34.44Z" fill="#004c6d"/><path d="M58.68,57.09a24.74,24.74,0,0,0,8.79-19.55s-.19-3.14-2.29-4A2.29,2.29,0,0,1,63.78,31c.76-3.95,2.06-11.69,1.17-14.11,0,0,6.14,2.48,5.8,16.07C70.74,32.94,70.89,48.15,58.68,57.09Z" fill="#5fc7d2"/><circle cx="40.62" cy="40.62" r="40.09" fill="none" stroke="#fff" stroke-miterlimit="10" stroke-width="1.06"/></svg>