<svg id="Layer_1" data-name="Layer 1" xmlns="http://www.w3.org/2000/svg" xmlns:xlink="http://www.w3.org/1999/xlink" width="279.13" height="79.35" viewBox="0 0 279.13 79.35"><defs><clipPath id="clip-path" transform="translate(11.79)"><circle cx="39.25" cy="39.25" r="38.63" fill="none"/></clipPath></defs><title>lofo-pwc-short</title><circle cx="51.04" cy="39.25" r="38.63" fill="#bee5f0"/><g clip-path="url(#clip-path)"><path d="M-11.79,79.35H90.29c0-7.28,0-13.66,0-21.93C79,63.88,67.54,60.93,61.08,59.62c-9.68-2-19.06-6.2-29.1-5.94a55.76,55.76,0,0,0-18.73,4A49.48,49.48,0,0,0-11.79,79.35Z" transform="translate(11.79)" fill="#5fc7d1"/><path d="M-11.79,79.35s0-17.53,0-21.06c0,0,8.36,9.7,25.9,8.41,6-.44,17.37-4.89,26.85-5,11.26-.07,22.21,1.58,31.57,6.15A85,85,0,0,1,90.29,79.35Z" transform="translate(11.79)" fill="#47a4ad"/></g><path d="M50.81,57s-6,9.63-12.11,10.22a.59.59,0,0,1-.51-1c2.19-2.66,5-6.64,3.83-8.2" transform="translate(11.79)" fill="#004259"/><path d="M6.8,33.29s3.53-5.89,9.86-4.1c0,0,0-5,6.92-5.52,0,0-.48,5.24-3.95,7,0,0,4.43,10.45,17.36,6.73a24.21,24.21,0,0,0,12.4-12.76s6-11.94,13.29-8.33c0,0,6.48,3.63,5,18.6,0,0-2,23.53-26.57,26,0,0-11.88,9.38-19.85,7.34a.79.79,0,0,1-.2-1.44c4-2.35,9.33-6.06,8.54-8.56,0,0-16.12-5.89-14.7-25.62C14.85,32.73,12.45,34.81,6.8,33.29Z" transform="translate(11.79)" fill="#004c6d"/><path d="M43.69,59.71" transform="translate(11.79)" fill="none" stroke="#00a4a4" stroke-miterlimit="10" stroke-width="1.08"/><path d="M56.64,55.11a23.83,23.83,0,0,0,8.47-18.83s-.19-3-2.21-3.88A2.21,2.21,0,0,1,61.56,30c.73-3.8,2-11.26,1.12-13.59,0,0,5.92,2.39,5.59,15.48C68.27,31.84,68.41,46.5,56.64,55.11Z" transform="translate(11.79)" fill="#5fc7d1"/><circle cx="51.04" cy="39.25" r="38.63" fill="none" stroke="#fff" stroke-miterlimit="10" stroke-width="1.25"/><path d="M106,26.2a6.6,6.6,0,0,1-.6,3,5.29,5.29,0,0,1-1.65,2,7.09,7.09,0,0,1-2.44,1.11,12.25,12.25,0,0,1-3,.35v4H93V19.81h5.36a12.32,12.32,0,0,1,3,.35,7.07,7.07,0,0,1,2.44,1.11,5.28,5.28,0,0,1,1.65,2A6.61,6.61,0,0,1,106,26.2Zm-7.7,1.86h.23a2,2,0,0,0,1.52-.49,2.25,2.25,0,0,0,0-2.74,2,2,0,0,0-1.52-.49h-.23Z" transform="translate(11.79)" fill="#fff"/><path d="M113.26,19.81h4l6.36,16.78h-5.28l-.55-1.51h-5.08l-.55,1.51h-5.28Zm3.14,11.57-1.13-2.94-1.13,2.94Z" transform="translate(11.79)" fill="#fff"/><path d="M124.65,28.21a9,9,0,0,1,.7-3.63,8.44,8.44,0,0,1,1.91-2.78A8.31,8.31,0,0,1,130.09,20a9.49,9.49,0,0,1,3.42-.62,10.66,10.66,0,0,1,2.55.28,12.06,12.06,0,0,1,1.92.63,9.1,9.1,0,0,1,1.61.88L137,25.85a8.93,8.93,0,0,0-.88-.58,8.69,8.69,0,0,0-1-.39,4.43,4.43,0,0,0-1.35-.19,3.67,3.67,0,0,0-1.43.28,3.71,3.71,0,0,0-1.14.75,3.47,3.47,0,0,0-.77,1.12,3.42,3.42,0,0,0-.28,1.37,3.29,3.29,0,0,0,.29,1.37,3.51,3.51,0,0,0,.79,1.12,3.74,3.74,0,0,0,1.18.75,3.88,3.88,0,0,0,1.48.28,4.71,4.71,0,0,0,1.43-.2,5.3,5.3,0,0,0,1.06-.45,3.87,3.87,0,0,0,.88-.65l2.64,4.65a7.49,7.49,0,0,1-1.61,1,13.53,13.53,0,0,1-1.94.65,10.85,10.85,0,0,1-6.21-.34,8.55,8.55,0,0,1-2.87-1.8,8.17,8.17,0,0,1-1.89-2.78A9.22,9.22,0,0,1,124.65,28.21Z" transform="translate(11.79)" fill="#fff"/><path d="M141.48,19.81h5.69V36.59h-5.69Z" transform="translate(11.79)" fill="#fff"/><path d="M149.94,19.81h9.89v4.4h-4.53v1.86h4.45v4.18h-4.45v6.34h-5.36Z" transform="translate(11.79)" fill="#fff"/><path d="M162.21,19.81h5.69V36.59h-5.69Z" transform="translate(11.79)" fill="#fff"/><path d="M169.28,28.21a9,9,0,0,1,.7-3.63,8.44,8.44,0,0,1,1.91-2.78A8.31,8.31,0,0,1,174.71,20a9.49,9.49,0,0,1,3.42-.62,10.66,10.66,0,0,1,2.55.28,12.06,12.06,0,0,1,1.92.63,9.1,9.1,0,0,1,1.61.88l-2.64,4.65a8.93,8.93,0,0,0-.88-.58,8.69,8.69,0,0,0-1-.39,4.43,4.43,0,0,0-1.35-.19,3.67,3.67,0,0,0-1.43.28,3.71,3.71,0,0,0-1.14.75,3.47,3.47,0,0,0-.77,1.12,3.42,3.42,0,0,0-.28,1.37,3.29,3.29,0,0,0,.29,1.37,3.51,3.51,0,0,0,.79,1.12,3.74,3.74,0,0,0,1.18.75,3.88,3.88,0,0,0,1.48.28,4.71,4.71,0,0,0,1.43-.2,5.3,5.3,0,0,0,1.06-.45,3.87,3.87,0,0,0,.88-.65l2.64,4.65a7.49,7.49,0,0,1-1.61,1,13.53,13.53,0,0,1-1.94.65,10.85,10.85,0,0,1-6.21-.34,8.55,8.55,0,0,1-2.87-1.8A8.17,8.17,0,0,1,170,31.8,9.22,9.22,0,0,1,169.28,28.21Z" transform="translate(11.79)" fill="#fff"/><path d="M187.74,19.81h5.69l1.94,5.86,1.94-5.86H201l1.94,5.86,1.94-5.86h5.69L205,36.59h-4.18l-1.69-5.08-1.69,5.08h-4.18Z" transform="translate(11.79)" fill="#56c4cf"/><path d="M211.92,19.81h5.36v5.71h3V19.81h5.38V36.59h-5.38V30.38h-3v6.21h-5.36Z" transform="translate(11.79)" fill="#56c4cf"/><path d="M233.4,19.81h4l6.36,16.78h-5.28L238,35.08h-5.08l-.55,1.51H227Zm3.14,11.57-1.13-2.94-1.13,2.94Z" transform="translate(11.79)" fill="#56c4cf"/><path d="M245.18,19.81h5.59V32.19h4.63v4.4H245.18Z" transform="translate(11.79)" fill="#56c4cf"/><path d="M257.28,19.81h9.89v4.4h-4.53v1.86h4.45v4.18h-4.45v1.94h4.7v4.4H257.28Z" transform="translate(11.79)" fill="#56c4cf"/><path d="M92.58,51.54a9,9,0,0,1,.7-3.63,8.44,8.44,0,0,1,1.91-2.78A8.31,8.31,0,0,1,98,43.35a9.49,9.49,0,0,1,3.42-.62A10.66,10.66,0,0,1,104,43a12.06,12.06,0,0,1,1.92.63,9.1,9.1,0,0,1,1.61.88l-2.64,4.65a8.93,8.93,0,0,0-.88-.58,8.69,8.69,0,0,0-1-.39,4.43,4.43,0,0,0-1.35-.19,3.67,3.67,0,0,0-1.43.28,3.71,3.71,0,0,0-1.14.75,3.47,3.47,0,0,0-.77,1.12A3.42,3.42,0,0,0,98,51.54a3.29,3.29,0,0,0,.29,1.37A3.51,3.51,0,0,0,99.1,54a3.74,3.74,0,0,0,1.18.75,3.88,3.88,0,0,0,1.48.28,4.71,4.71,0,0,0,1.43-.2,5.3,5.3,0,0,0,1.06-.45,3.87,3.87,0,0,0,.88-.65l2.64,4.65a7.49,7.49,0,0,1-1.61,1,13.53,13.53,0,0,1-1.94.65A10.85,10.85,0,0,1,98,59.7a8.55,8.55,0,0,1-2.87-1.8,8.17,8.17,0,0,1-1.89-2.78A9.22,9.22,0,0,1,92.58,51.54Z" transform="translate(11.79)" fill="#fff"/><path d="M109,51.54a8.57,8.57,0,0,1,.69-3.42,8.8,8.8,0,0,1,4.69-4.69,8.8,8.8,0,0,1,6.84,0,8.79,8.79,0,0,1,4.69,4.69,8.8,8.8,0,0,1,0,6.84,8.8,8.8,0,0,1-4.69,4.69,8.81,8.81,0,0,1-6.84,0A8.81,8.81,0,0,1,109.72,55,8.56,8.56,0,0,1,109,51.54Zm5.28,0a3.42,3.42,0,0,0,.28,1.37,3.54,3.54,0,0,0,1.87,1.87,3.53,3.53,0,0,0,2.74,0,3.54,3.54,0,0,0,1.87-1.87,3.55,3.55,0,0,0,0-2.74,3.53,3.53,0,0,0-1.87-1.87,3.55,3.55,0,0,0-2.74,0,3.53,3.53,0,0,0-1.87,1.87A3.42,3.42,0,0,0,114.32,51.54Z" transform="translate(11.79)" fill="#fff"/><path d="M129,43.14h4.4l4.63,6.47V43.14h5.26V59.92h-4.43l-4.6-6.44v6.44H129Z" transform="translate(11.79)" fill="#fff"/><path d="M145.63,54.71a8.11,8.11,0,0,0,1.16.28,9.26,9.26,0,0,0,1.15.2,11,11,0,0,0,1.29.08q1.16,0,1.16-.86a1,1,0,0,0-.35-.67,10.67,10.67,0,0,0-.89-.75L148,52.07a8.42,8.42,0,0,1-1.16-1.16,6,6,0,0,1-.89-1.47,4.69,4.69,0,0,1-.35-1.87,4.83,4.83,0,0,1,.43-2.09A4.19,4.19,0,0,1,147.19,44,5.35,5.35,0,0,1,149,43a7.36,7.36,0,0,1,2.18-.31,11.68,11.68,0,0,1,1.21.06l1.08.11,1.08.15v4.7l-.45-.05-.45,0-.53,0h-.38a2.34,2.34,0,0,0-.43.06.89.89,0,0,0-.35.18.44.44,0,0,0-.15.35c0,.13.11.3.34.5s.5.44.83.7.69.58,1.08.93a7.45,7.45,0,0,1,1.08,1.21,7.06,7.06,0,0,1,.83,1.54,5.14,5.14,0,0,1,.34,1.91,6,6,0,0,1-.35,2.07,4.42,4.42,0,0,1-1.09,1.69,5.24,5.24,0,0,1-1.9,1.13,8.16,8.16,0,0,1-2.74.41,16.48,16.48,0,0,1-1.77-.09c-.55-.06-1-.13-1.45-.21a12.24,12.24,0,0,1-1.33-.3Z" transform="translate(11.79)" fill="#fff"/><path d="M158.41,43.14h9.89v4.4h-4.53V49.4h4.45v4.18h-4.45v1.94h4.7v4.4H158.41Z" transform="translate(11.79)" fill="#fff"/><path d="M171,43.14h5.79a10,10,0,0,1,3,.43,7,7,0,0,1,2.38,1.26,5.78,5.78,0,0,1,1.57,2.05,6.59,6.59,0,0,1,.57,2.81,5.75,5.75,0,0,1-.35,2.14,6.52,6.52,0,0,1-.78,1.46A5.4,5.4,0,0,1,182,54.38l3.15,5.54h-6.29l-2.52-4.25v4.25H171Zm5.36,8.25h.28a2.94,2.94,0,0,0,1.62-.43,1.87,1.87,0,0,0,0-2.87,2.94,2.94,0,0,0-1.62-.43h-.28Z" transform="translate(11.79)" fill="#fff"/><path d="M191.14,43.14l2.84,7.3,2.87-7.3h5.86l-6.54,16.78h-4.35l-6.54-16.78Z" transform="translate(11.79)" fill="#fff"/><path d="M206.06,43.14h4l6.36,16.78h-5.28l-.55-1.51h-5.08L205,59.92h-5.28Zm3.14,11.57-1.13-2.94-1.13,2.94Z" transform="translate(11.79)" fill="#fff"/><path d="M217.83,43.14h4.4l4.63,6.47V43.14h5.26V59.92h-4.43l-4.6-6.44v6.44h-5.26Z" transform="translate(11.79)" fill="#fff"/><path d="M234.51,51.54a9,9,0,0,1,.7-3.63,8.44,8.44,0,0,1,1.91-2.78,8.31,8.31,0,0,1,2.82-1.77,9.49,9.49,0,0,1,3.42-.62,10.66,10.66,0,0,1,2.55.28,12.06,12.06,0,0,1,1.92.63,9.1,9.1,0,0,1,1.61.88l-2.64,4.65a8.93,8.93,0,0,0-.88-.58,8.69,8.69,0,0,0-1-.39,4.43,4.43,0,0,0-1.35-.19,3.67,3.67,0,0,0-1.43.28A3.71,3.71,0,0,0,241,49a3.47,3.47,0,0,0-.77,1.12,3.42,3.42,0,0,0-.28,1.37,3.29,3.29,0,0,0,.29,1.37A3.51,3.51,0,0,0,241,54a3.74,3.74,0,0,0,1.18.75,3.88,3.88,0,0,0,1.48.28,4.71,4.71,0,0,0,1.43-.2,5.3,5.3,0,0,0,1.06-.45,3.87,3.87,0,0,0,.88-.65l2.64,4.65a7.49,7.49,0,0,1-1.61,1,13.53,13.53,0,0,1-1.94.65,10.85,10.85,0,0,1-6.21-.34,8.55,8.55,0,0,1-2.87-1.8,8.17,8.17,0,0,1-1.89-2.78A9.22,9.22,0,0,1,234.51,51.54Z" transform="translate(11.79)" fill="#fff"/><path d="M255.16,52.69,250,43.14h6l1.94,3.55,1.91-3.55h6l-5.21,9.56v7.22h-5.36Z" transform="translate(11.79)" fill="#fff"/></svg>