<svg id="Layer_1" data-name="Layer 1" xmlns="http://www.w3.org/2000/svg" xmlns:xlink="http://www.w3.org/1999/xlink" width="482.96" height="79.35" viewBox="0 0 482.96 79.35"><defs><clipPath id="clip-path" transform="translate(11.78)"><circle cx="39.26" cy="39.26" r="38.63" fill="none"/></clipPath></defs><title>logo-pwc-long</title><circle cx="51.04" cy="39.26" r="38.63" fill="#bee5f0"/><g clip-path="url(#clip-path)"><path d="M-11.78,79.35H90.3V57.42C79,63.89,67.55,60.94,61.09,59.63c-9.68-2-19.06-6.2-29.1-5.94a55.76,55.76,0,0,0-18.73,4A49.48,49.48,0,0,0-11.78,79.35Z" transform="translate(11.78)" fill="#5fc7d1"/><path d="M-11.78,79.35V58.3s8.36,9.7,25.9,8.41c6-.44,17.37-4.89,26.85-5,11.26-.07,22.21,1.58,31.57,6.15A85,85,0,0,1,90.3,79.35Z" transform="translate(11.78)" fill="#47a4ad"/></g><path d="M50.82,57s-6,9.63-12.11,10.22a.59.59,0,0,1-.51-1c2.19-2.66,5-6.64,3.83-8.2" transform="translate(11.78)" fill="#004259"/><path d="M6.81,33.3s3.53-5.89,9.86-4.1c0,0,0-5,6.92-5.52,0,0-.48,5.24-4,7,0,0,4.43,10.45,17.36,6.73a24.21,24.21,0,0,0,12.4-12.76s6-11.94,13.29-8.33c0,0,6.48,3.63,5,18.6,0,0-2,23.53-26.57,26,0,0-11.88,9.38-19.85,7.34a.79.79,0,0,1-.2-1.44c4-2.35,9.33-6.06,8.54-8.56,0,0-16.12-5.89-14.7-25.62C14.86,32.74,12.45,34.82,6.81,33.3Z" transform="translate(11.78)" fill="#004c6d"/><path d="M43.69,59.72" transform="translate(11.78)" fill="none" stroke="#00a4a4" stroke-miterlimit="10" stroke-width="1.08"/><path d="M56.64,55.12a23.83,23.83,0,0,0,8.47-18.83s-.19-3-2.21-3.88A2.21,2.21,0,0,1,61.57,30c.73-3.8,2-11.26,1.12-13.59,0,0,5.92,2.39,5.59,15.48C68.27,31.85,68.42,46.51,56.64,55.12Z" transform="translate(11.78)" fill="#5fc7d1"/><circle cx="51.04" cy="39.26" r="38.63" fill="none" stroke="#fff" stroke-miterlimit="10" stroke-width="1.25"/><path d="M106,26.21a6.6,6.6,0,0,1-.6,3,5.29,5.29,0,0,1-1.65,2,7.09,7.09,0,0,1-2.44,1.11,12.25,12.25,0,0,1-3,.35v4H93V19.82h5.36a12.32,12.32,0,0,1,3,.35,7.07,7.07,0,0,1,2.44,1.11,5.28,5.28,0,0,1,1.65,2A6.61,6.61,0,0,1,106,26.21Zm-7.7,1.86h.23a2,2,0,0,0,1.52-.49,2.25,2.25,0,0,0,0-2.74,2,2,0,0,0-1.52-.49h-.23Z" transform="translate(11.78)" fill="#fff"/><path d="M113.27,19.82h4l6.36,16.78h-5.28l-.55-1.51h-5.08l-.55,1.51h-5.28Zm3.14,11.57-1.13-2.94-1.13,2.94Z" transform="translate(11.78)" fill="#fff"/><path d="M124.66,28.22a9,9,0,0,1,.7-3.63,8.44,8.44,0,0,1,1.91-2.78,8.31,8.31,0,0,1,2.83-1.8,9.49,9.49,0,0,1,3.42-.62,10.66,10.66,0,0,1,2.55.28,12.06,12.06,0,0,1,1.92.63,9.1,9.1,0,0,1,1.61.88L137,25.86a8.93,8.93,0,0,0-.88-.58,8.69,8.69,0,0,0-1-.39,4.43,4.43,0,0,0-1.35-.19,3.67,3.67,0,0,0-1.43.28,3.71,3.71,0,0,0-1.14.75,3.47,3.47,0,0,0-.77,1.12,3.42,3.42,0,0,0-.28,1.37,3.29,3.29,0,0,0,.29,1.37,3.51,3.51,0,0,0,.79,1.12,3.74,3.74,0,0,0,1.18.75,3.88,3.88,0,0,0,1.48.28,4.71,4.71,0,0,0,1.43-.2,5.3,5.3,0,0,0,1.06-.45,3.87,3.87,0,0,0,.88-.65l2.64,4.65a7.49,7.49,0,0,1-1.61,1,13.53,13.53,0,0,1-1.94.65,10.85,10.85,0,0,1-6.21-.34,8.55,8.55,0,0,1-2.87-1.8,8.17,8.17,0,0,1-1.89-2.78A9.22,9.22,0,0,1,124.66,28.22Z" transform="translate(11.78)" fill="#fff"/><path d="M141.48,19.82h5.69V36.6h-5.69Z" transform="translate(11.78)" fill="#fff"/><path d="M149.95,19.82h9.89v4.4h-4.53v1.86h4.45v4.18h-4.45V36.6h-5.36Z" transform="translate(11.78)" fill="#fff"/><path d="M162.22,19.82h5.69V36.6h-5.69Z" transform="translate(11.78)" fill="#fff"/><path d="M169.28,28.22a9,9,0,0,1,.7-3.63,8.44,8.44,0,0,1,1.91-2.78,8.31,8.31,0,0,1,2.82-1.8,9.49,9.49,0,0,1,3.42-.62,10.66,10.66,0,0,1,2.55.28,12.06,12.06,0,0,1,1.92.63,9.1,9.1,0,0,1,1.61.88l-2.64,4.65a8.93,8.93,0,0,0-.88-.58,8.69,8.69,0,0,0-1-.39,4.43,4.43,0,0,0-1.35-.19,3.67,3.67,0,0,0-1.43.28,3.71,3.71,0,0,0-1.14.75,3.47,3.47,0,0,0-.77,1.12,3.42,3.42,0,0,0-.28,1.37,3.29,3.29,0,0,0,.29,1.37,3.51,3.51,0,0,0,.79,1.12,3.74,3.74,0,0,0,1.18.75,3.88,3.88,0,0,0,1.48.28,4.71,4.71,0,0,0,1.43-.2,5.3,5.3,0,0,0,1.06-.45,3.87,3.87,0,0,0,.88-.65l2.64,4.65a7.49,7.49,0,0,1-1.61,1,13.53,13.53,0,0,1-1.94.65,10.85,10.85,0,0,1-6.21-.34,8.55,8.55,0,0,1-2.87-1.8A8.17,8.17,0,0,1,170,31.81,9.22,9.22,0,0,1,169.28,28.22Z" transform="translate(11.78)" fill="#fff"/><path d="M187.75,19.82h5.69l1.94,5.86,1.94-5.86H201l1.94,5.86,1.94-5.86h5.69L205,36.6h-4.18l-1.69-5.08-1.69,5.08h-4.18Z" transform="translate(11.78)" fill="#56c4cf"/><path d="M211.92,19.82h5.36v5.71h3V19.82h5.38V36.6h-5.38V30.39h-3V36.6h-5.36Z" transform="translate(11.78)" fill="#56c4cf"/><path d="M233.4,19.82h4l6.36,16.78h-5.28L238,35.09h-5.08l-.55,1.51H227Zm3.14,11.57-1.13-2.94-1.13,2.94Z" transform="translate(11.78)" fill="#56c4cf"/><path d="M245.18,19.82h5.59V32.19h4.63v4.4H245.18Z" transform="translate(11.78)" fill="#56c4cf"/><path d="M257.28,19.82h9.89v4.4h-4.53v1.86h4.45v4.18h-4.45v1.94h4.7v4.4H257.28Z" transform="translate(11.78)" fill="#56c4cf"/><path d="M92.59,51.55a9,9,0,0,1,.7-3.63,8.44,8.44,0,0,1,1.91-2.78A8.31,8.31,0,0,1,98,43.35a9.49,9.49,0,0,1,3.42-.62A10.66,10.66,0,0,1,104,43a12.06,12.06,0,0,1,1.92.63,9.1,9.1,0,0,1,1.61.88l-2.64,4.65a8.93,8.93,0,0,0-.88-.58,8.69,8.69,0,0,0-1-.39,4.43,4.43,0,0,0-1.35-.19,3.67,3.67,0,0,0-1.43.28A3.71,3.71,0,0,0,99.1,49a3.47,3.47,0,0,0-.77,1.12A3.42,3.42,0,0,0,98,51.55a3.29,3.29,0,0,0,.29,1.37A3.51,3.51,0,0,0,99.1,54a3.74,3.74,0,0,0,1.18.75,3.88,3.88,0,0,0,1.48.28,4.71,4.71,0,0,0,1.43-.2,5.3,5.3,0,0,0,1.06-.45,3.87,3.87,0,0,0,.88-.65l2.64,4.65a7.49,7.49,0,0,1-1.61,1,13.53,13.53,0,0,1-1.94.65A10.85,10.85,0,0,1,98,59.71a8.55,8.55,0,0,1-2.87-1.8,8.17,8.17,0,0,1-1.89-2.78A9.22,9.22,0,0,1,92.59,51.55Z" transform="translate(11.78)" fill="#fff"/><path d="M109,51.55a8.57,8.57,0,0,1,.69-3.42,8.83,8.83,0,1,1,0,6.88A8.56,8.56,0,0,1,109,51.55Zm5.28,0a3.42,3.42,0,0,0,.28,1.37,3.52,3.52,0,1,0,0-2.74,3.42,3.42,0,0,0-.24,1.37Z" transform="translate(11.78)" fill="#fff"/><path d="M129,43.15h4.4L138,49.62V43.15h5.26V59.92h-4.43l-4.6-6.44v6.44H129Z" transform="translate(11.78)" fill="#fff"/><path d="M145.64,54.72a8.11,8.11,0,0,0,1.16.28,9.26,9.26,0,0,0,1.15.2,11,11,0,0,0,1.29.08q1.16,0,1.16-.86a1,1,0,0,0-.35-.67,10.67,10.67,0,0,0-.89-.75L148,52.08a8.42,8.42,0,0,1-1.16-1.16,6,6,0,0,1-.89-1.47,4.69,4.69,0,0,1-.35-1.87,4.83,4.83,0,0,1,.43-2.09A4.19,4.19,0,0,1,147.2,44,5.35,5.35,0,0,1,149,43a7.36,7.36,0,0,1,2.18-.31,11.68,11.68,0,0,1,1.21.06l1.08.11,1.08.15v4.7l-.45,0h-1.36a2.34,2.34,0,0,0-.43.06.89.89,0,0,0-.35.18.44.44,0,0,0-.15.35c0,.13.11.3.34.5s.5.44.83.7.69.58,1.08.93a7.45,7.45,0,0,1,1.08,1.21,7.06,7.06,0,0,1,.83,1.54,5.14,5.14,0,0,1,.34,1.91,6,6,0,0,1-.35,2.07,4.42,4.42,0,0,1-1.09,1.69,5.24,5.24,0,0,1-1.9,1.13,8.16,8.16,0,0,1-2.74.41,16.48,16.48,0,0,1-1.77-.09c-.55-.06-1-.13-1.45-.21a12.24,12.24,0,0,1-1.33-.3Z" transform="translate(11.78)" fill="#fff"/><path d="M158.42,43.15h9.89v4.4h-4.53v1.86h4.45v4.18h-4.45v1.94h4.7v4.4H158.42Z" transform="translate(11.78)" fill="#fff"/><path d="M171,43.15h5.79a10,10,0,0,1,3,.43,7,7,0,0,1,2.38,1.26,5.78,5.78,0,0,1,1.57,2,6.59,6.59,0,0,1,.57,2.81,5.75,5.75,0,0,1-.35,2.14,6.52,6.52,0,0,1-.78,1.46A5.4,5.4,0,0,1,182,54.39l3.15,5.54h-6.29l-2.52-4.25v4.25H171Zm5.36,8.25h.28a2.94,2.94,0,0,0,1.62-.43,1.87,1.87,0,0,0,0-2.87,2.94,2.94,0,0,0-1.62-.43h-.28Z" transform="translate(11.78)" fill="#fff"/><path d="M191.14,43.15l2.84,7.3,2.87-7.3h5.86l-6.54,16.78h-4.35l-6.54-16.78Z" transform="translate(11.78)" fill="#fff"/><path d="M206.06,43.15h4l6.36,16.78h-5.28l-.55-1.51h-5.08L205,59.92h-5.28Zm3.14,11.57-1.13-2.94-1.13,2.94Z" transform="translate(11.78)" fill="#fff"/><path d="M217.84,43.15h4.4l4.63,6.47V43.15h5.26V59.92H227.7l-4.6-6.44v6.44h-5.26Z" transform="translate(11.78)" fill="#fff"/><path d="M234.51,51.55a9,9,0,0,1,.7-3.63,8.44,8.44,0,0,1,1.91-2.78,8.31,8.31,0,0,1,2.82-1.77,9.49,9.49,0,0,1,3.42-.62,10.66,10.66,0,0,1,2.55.28,12.06,12.06,0,0,1,1.92.63,9.1,9.1,0,0,1,1.61.88l-2.64,4.65a8.93,8.93,0,0,0-.88-.58,8.69,8.69,0,0,0-1-.39,4.43,4.43,0,0,0-1.35-.19,3.67,3.67,0,0,0-1.43.28A3.71,3.71,0,0,0,241,49a3.47,3.47,0,0,0-.77,1.12,3.42,3.42,0,0,0-.28,1.37,3.29,3.29,0,0,0,.29,1.37A3.51,3.51,0,0,0,241,54a3.74,3.74,0,0,0,1.18.75,3.88,3.88,0,0,0,1.48.28,4.71,4.71,0,0,0,1.43-.2,5.3,5.3,0,0,0,1.06-.45,3.87,3.87,0,0,0,.88-.65l2.64,4.65a7.49,7.49,0,0,1-1.61,1,13.53,13.53,0,0,1-1.94.65,10.85,10.85,0,0,1-6.21-.34A8.55,8.55,0,0,1,237,57.9a8.17,8.17,0,0,1-1.89-2.78A9.22,9.22,0,0,1,234.51,51.55Z" transform="translate(11.78)" fill="#fff"/><path d="M255.17,52.69,250,43.15h6l1.94,3.55,1.91-3.55h6l-5.21,9.56v7.22h-5.36Z" transform="translate(11.78)" fill="#fff"/><path d="M298.61,44.15a4.87,4.87,0,0,0,2.61.74c1.12,0,2.15-.6,2.15-1.72,0-.76-.5-1.27-1.63-1.87-1.34-.72-2.35-1.65-2.35-3,0-2.22,1.92-3.61,4.26-3.61a5.15,5.15,0,0,1,2.58.58l-.65,1.67a4.35,4.35,0,0,0-2.1-.52c-1.27,0-2,.74-2,1.51s.65,1.26,1.74,1.87c1.41.74,2.25,1.67,2.25,3.08,0,2.32-1.87,3.74-4.47,3.74a5.33,5.33,0,0,1-3.07-.81Z" transform="translate(11.78)" fill="#56c4cf"/><path d="M311.93,46.42c0-.5.09-1.17.15-1.89H312a3.35,3.35,0,0,1-3,2.08c-1.49,0-2.47-1.17-2.47-2.85a5.73,5.73,0,0,1,5.57-5.89h.32a8.88,8.88,0,0,1,2.53.38l-.86,4.36a19.43,19.43,0,0,0-.34,3.81Zm.83-6.92a3.34,3.34,0,0,0-.83-.09c-1.86,0-3.28,2.08-3.28,4,0,.88.33,1.6,1.2,1.6s2.06-1.17,2.46-3.3Z" transform="translate(11.78)" fill="#56c4cf"/><path d="M315.73,46.42,317,39.6h-1.08l.29-1.55h1.08l.09-.43a4.79,4.79,0,0,1,1.39-2.82A3.37,3.37,0,0,1,321,34a2.81,2.81,0,0,1,1.24.22l-.38,1.58a2.11,2.11,0,0,0-.81-.14c-1,0-1.48.88-1.67,2l-.07.4H321l-.29,1.55H319l-1.29,6.82Z" transform="translate(11.78)" fill="#56c4cf"/><path d="M327,45.94a6.73,6.73,0,0,1-3,.65,3.14,3.14,0,0,1-3.44-3.45c0-2.53,1.86-5.27,4.74-5.27a2.4,2.4,0,0,1,2.7,2.35c0,2.15-2.25,2.83-5.48,2.77a2.32,2.32,0,0,0,.22,1.18,1.85,1.85,0,0,0,1.72.86,4.94,4.94,0,0,0,2.3-.55Zm-1.91-6.58a2.58,2.58,0,0,0-2.32,2.13c2.06,0,3.39-.26,3.39-1.25,0-.55-.44-.88-1.08-.88Z" transform="translate(11.78)" fill="#56c4cf"/><path d="M332.9,46.42l-.5-11.58h2l.12,6c0,1.44,0,2.51,0,3.42h0c.36-1,.7-2,1.29-3.37l2.59-6h2.18l.09,5.84c0,1.44,0,2.53,0,3.49h0c.38-1.1.76-2.2,1.22-3.37l2.49-6h2.11l-5.22,11.58H339l-.17-5.58c0-1.34,0-2.28.07-3.61h0c-.39,1.19-.75,2.27-1.29,3.52L335,46.44Z" transform="translate(11.78)" fill="#56c4cf"/><path d="M350.08,46.42c0-.5.09-1.17.15-1.89h0a3.35,3.35,0,0,1-3,2.08c-1.49,0-2.47-1.17-2.47-2.85a5.73,5.73,0,0,1,5.57-5.89h.32a8.88,8.88,0,0,1,2.53.38l-.86,4.36a19.43,19.43,0,0,0-.34,3.81Zm.83-6.92a3.34,3.34,0,0,0-.83-.09c-1.86,0-3.28,2.08-3.28,4,0,.88.33,1.6,1.2,1.6s2.06-1.17,2.46-3.3Z" transform="translate(11.78)" fill="#56c4cf"/><path d="M357.78,35.76l-.43,2.3h1.89l-.31,1.55h-1.87L356.4,43a7.49,7.49,0,0,0-.14,1.18.65.65,0,0,0,.55.74H357a4.34,4.34,0,0,0,.69,0l-.19,1.56a4.55,4.55,0,0,1-1.3.17c-1.38,0-2-.76-2-1.72a6.9,6.9,0,0,1,.19-1.56l.72-3.73H354l.29-1.55h1.13l.34-1.8Z" transform="translate(11.78)" fill="#56c4cf"/><path d="M365.36,45.94a6.73,6.73,0,0,1-3,.65A3.14,3.14,0,0,1,359,43.15c0-2.53,1.86-5.27,4.74-5.27a2.4,2.4,0,0,1,2.7,2.35c0,2.15-2.25,2.83-5.48,2.77a2.32,2.32,0,0,0,.22,1.18,1.85,1.85,0,0,0,1.72.86,4.94,4.94,0,0,0,2.3-.55Zm-1.91-6.58a2.58,2.58,0,0,0-2.32,2.13c2.06,0,3.39-.26,3.39-1.25,0-.55-.43-.88-1.07-.88Z" transform="translate(11.78)" fill="#56c4cf"/><path d="M366.68,46.42l1-5.15c.22-1.18.33-2.46.43-3.21h1.74c0,.57-.1,1.15-.19,1.77h0a3.08,3.08,0,0,1,2.63-2h.43l-.4,2a2.35,2.35,0,0,0-.38,0c-1.43,0-2.34,1.44-2.66,3.23l-.64,3.37Z" transform="translate(11.78)" fill="#56c4cf"/><path d="M372.52,44.56a4.56,4.56,0,0,0,2,.57c.81,0,1.29-.48,1.29-1s-.27-.86-1.1-1.29a2.57,2.57,0,0,1-1.65-2.18c0-1.62,1.41-2.75,3.39-2.75a4.17,4.17,0,0,1,2,.43l-.52,1.44a3.35,3.35,0,0,0-1.56-.38c-.76,0-1.27.41-1.27,1s.38.79,1.08,1.15a2.72,2.72,0,0,1,1.74,2.25c0,1.84-1.55,2.85-3.56,2.85A4.32,4.32,0,0,1,372,46Z" transform="translate(11.78)" fill="#56c4cf"/><path d="M377.4,48.51a29.83,29.83,0,0,0,1.82-4.5l2.25-.17a26.73,26.73,0,0,1-2.59,4.57Z" transform="translate(11.78)" fill="#56c4cf"/><path d="M385.59,44.15a4.87,4.87,0,0,0,2.61.74c1.12,0,2.15-.6,2.15-1.72,0-.76-.5-1.27-1.63-1.87-1.34-.72-2.35-1.65-2.35-3,0-2.22,1.92-3.61,4.26-3.61a5.15,5.15,0,0,1,2.58.58l-.65,1.67a4.35,4.35,0,0,0-2.1-.52c-1.27,0-2,.74-2,1.51s.65,1.26,1.74,1.87c1.41.74,2.25,1.67,2.25,3.08,0,2.32-1.87,3.74-4.47,3.74a5.33,5.33,0,0,1-3.07-.81Z" transform="translate(11.78)" fill="#56c4cf"/><path d="M398.9,46.42c0-.5.09-1.17.15-1.89h0a3.35,3.35,0,0,1-3,2.08c-1.49,0-2.47-1.17-2.47-2.85a5.73,5.73,0,0,1,5.57-5.89h.32a8.88,8.88,0,0,1,2.53.38l-.86,4.36a19.43,19.43,0,0,0-.34,3.81Zm.83-6.92a3.34,3.34,0,0,0-.83-.09c-1.86,0-3.28,2.08-3.28,4,0,.88.33,1.6,1.2,1.6s2.06-1.17,2.46-3.3Z" transform="translate(11.78)" fill="#56c4cf"/><path d="M402.71,46.42,404,39.6h-1.08l.29-1.55h1.08l.09-.43a4.79,4.79,0,0,1,1.39-2.82A3.37,3.37,0,0,1,408,34a2.81,2.81,0,0,1,1.24.22l-.38,1.58a2.11,2.11,0,0,0-.81-.14c-1,0-1.48.88-1.67,2l-.07.4H408l-.29,1.55H406l-1.29,6.82Z" transform="translate(11.78)" fill="#56c4cf"/><path d="M414,45.94a6.73,6.73,0,0,1-3,.65,3.14,3.14,0,0,1-3.44-3.45c0-2.53,1.86-5.27,4.74-5.27a2.4,2.4,0,0,1,2.7,2.35c0,2.15-2.25,2.83-5.48,2.77a2.3,2.3,0,0,0,.22,1.18,1.85,1.85,0,0,0,1.72.86,4.94,4.94,0,0,0,2.3-.55Zm-1.91-6.58a2.58,2.58,0,0,0-2.32,2.13c2.06,0,3.39-.26,3.39-1.25a1,1,0,0,0-1.09-.88Z" transform="translate(11.78)" fill="#56c4cf"/><path d="M419.9,46.42l-.5-11.58h2l.12,6c0,1.44,0,2.51,0,3.42h0c.36-1,.7-2,1.29-3.37l2.59-6h2.18l.09,5.84c0,1.44,0,2.53,0,3.49h0c.38-1.1.76-2.2,1.22-3.37l2.49-6h2.11l-5.22,11.58H426l-.17-5.58c0-1.34,0-2.28.07-3.61h0c-.39,1.19-.75,2.27-1.29,3.52L422,46.44Z" transform="translate(11.78)" fill="#56c4cf"/><path d="M432.39,46.42l2.3-12.2h2l-1,5.08h0a3.52,3.52,0,0,1,2.8-1.44,2,2,0,0,1,2.1,2.25,9,9,0,0,1-.14,1.48l-.93,4.83h-2l.89-4.69a6.82,6.82,0,0,0,.1-1.1c0-.64-.29-1.13-1-1.13-1,0-2.08,1.17-2.41,2.94l-.76,4Z" transform="translate(11.78)" fill="#56c4cf"/><path d="M447,46.42c0-.5.09-1.17.15-1.89h0a3.35,3.35,0,0,1-3,2.08c-1.49,0-2.47-1.17-2.47-2.85a5.73,5.73,0,0,1,5.57-5.89h.32a8.88,8.88,0,0,1,2.53.38l-.86,4.36a19.43,19.43,0,0,0-.34,3.81Zm.83-6.92a3.34,3.34,0,0,0-.83-.09c-1.86,0-3.28,2.08-3.28,4,0,.88.33,1.6,1.2,1.6s2.06-1.17,2.46-3.3Z" transform="translate(11.78)" fill="#56c4cf"/><path d="M450.43,46.42l2.34-12.2h2l-2.32,12.2Z" transform="translate(11.78)" fill="#56c4cf"/><path d="M460.93,45.94a6.73,6.73,0,0,1-3,.65,3.14,3.14,0,0,1-3.44-3.45c0-2.53,1.86-5.27,4.74-5.27a2.4,2.4,0,0,1,2.7,2.35c0,2.15-2.25,2.83-5.48,2.77a2.32,2.32,0,0,0,.22,1.18,1.85,1.85,0,0,0,1.72.86,4.94,4.94,0,0,0,2.3-.55ZM459,39.37a2.58,2.58,0,0,0-2.32,2.13c2.06,0,3.39-.26,3.39-1.25C460.08,39.69,459.65,39.37,459,39.37Z" transform="translate(11.78)" fill="#56c4cf"/><path d="M462.46,44.56a4.56,4.56,0,0,0,2,.57c.81,0,1.29-.48,1.29-1s-.27-.86-1.1-1.29A2.57,2.57,0,0,1,463,40.62c0-1.62,1.41-2.75,3.39-2.75a4.17,4.17,0,0,1,2,.43l-.52,1.44a3.35,3.35,0,0,0-1.56-.38c-.76,0-1.27.41-1.27,1s.38.79,1.08,1.15a2.72,2.72,0,0,1,1.74,2.25c0,1.84-1.55,2.85-3.56,2.85A4.32,4.32,0,0,1,462,46Z" transform="translate(11.78)" fill="#56c4cf"/><path d="M468.55,45.37a1.42,1.42,0,0,1,1.36-1.48H470A1.19,1.19,0,0,1,471.18,45s0,.08,0,.11a1.4,1.4,0,0,1-1.36,1.44h-.07a1.17,1.17,0,0,1-1.2-1.14S468.54,45.4,468.55,45.37Z" transform="translate(11.78)" fill="#56c4cf"/><rect x="295.2" y="20.01" width="1.02" height="39.89" fill="#fff"/></svg>